<svg xmlns="http://www.w3.org/2000/svg" width="18" height="18" fill="none">
	<path fill="currentColor"
		  d="M16.5 3.75V3a.75.75 0 0 0-.75-.75H13.5a.75.75 0 0 0-.75.75v.75h-.22l-.31-.31A1.51 1.51 0 0 0 11.16 3H6.84c-.394 0-.78.16-1.06.44l-.31.31h-.22V3a.75.75 0 0 0-.75-.75H2.25A.75.75 0 0 0 1.5 3v.75c-.827 0-1.5.673-1.5 1.5v9c0 .827.673 1.5 1.5 1.5h15c.827 0 1.5-.673 1.5-1.5v-9c0-.827-.673-1.5-1.5-1.5ZM4.125 7.5h-1.5a.375.375 0 1 1 0-.75h1.5a.375.375 0 1 1 0 .75Zm11.25 0H15v.375a.375.375 0 1 1-.75 0V7.5h-.375a.375.375 0 1 1 0-.75h.375v-.375a.375.375 0 1 1 .75 0v.375h.375a.375.375 0 1 1 0 .75Z"/>
</svg>
