<svg xmlns="http://www.w3.org/2000/svg" width="20" height="20" fill="none">
	<path fill="currentColor"
		  d="M17.995 5.515A5.138 5.138 0 0 0 13.264 2.4a5.155 5.155 0 0 0-3.261 1.16A5.155 5.155 0 0 0 6.741 2.4c-.691 0-1.36.133-1.992.399a5.127 5.127 0 0 0-3.148 4.717c0 .654.132 1.336.394 2.029.22.58.535 1.18.938 1.787.638.96 1.515 1.962 2.604 2.978a29.144 29.144 0 0 0 3.667 2.893l.461.298a.62.62 0 0 0 .671 0l.46-.298c.077-.05 1.862-1.21 3.668-2.893 1.09-1.016 1.967-2.017 2.604-2.978.403-.607.72-1.208.938-1.787a5.733 5.733 0 0 0 .394-2.029 5.042 5.042 0 0 0-.406-2.001Zm-7.993 10.433S3.08 11.468 3.08 7.516c0-2.001 1.639-3.623 3.661-3.623 1.422 0 2.655.8 3.261 1.971a3.668 3.668 0 0 1 3.262-1.971c2.022 0 3.662 1.622 3.662 3.623 0 3.952-6.923 8.432-6.923 8.432Z"/>
</svg>
