<svg xmlns="http://www.w3.org/2000/svg" width="20" height="20" fill="none">
	<g>
		<path fill="url(#b)"
			  d="M13.75 0h-7.5A6.25 6.25 0 0 0 0 6.25v7.5A6.25 6.25 0 0 0 6.25 20h7.5A6.25 6.25 0 0 0 20 13.75v-7.5A6.25 6.25 0 0 0 13.75 0Zm4.375 13.75a4.38 4.38 0 0 1-4.375 4.375h-7.5a4.38 4.38 0 0 1-4.375-4.375v-7.5A4.38 4.38 0 0 1 6.25 1.875h7.5a4.38 4.38 0 0 1 4.375 4.375v7.5Z"/>
		<path fill="url(#c)"
			  d="M10 5a5 5 0 1 0 0 10 5 5 0 0 0 0-10Zm0 8.125A3.13 3.13 0 0 1 6.875 10 3.129 3.129 0 0 1 10 6.875 3.129 3.129 0 0 1 13.125 10 3.13 3.13 0 0 1 10 13.125Z"/>
		<path fill="url(#d)" d="M15.373 5.291a.666.666 0 1 0 0-1.332.666.666 0 0 0 0 1.332Z"/>
	</g>
	<defs>
		<linearGradient id="b" x1="1.831" x2="18.169" y1="18.169" y2="1.831" gradientUnits="userSpaceOnUse">
			<stop stop-color="#FFC107"/>
			<stop offset=".507" stop-color="#F44336"/>
			<stop offset=".99" stop-color="#9C27B0"/>
		</linearGradient>
		<linearGradient id="c" x1="6.465" x2="13.535" y1="13.535" y2="6.465" gradientUnits="userSpaceOnUse">
			<stop stop-color="#FFC107"/>
			<stop offset=".507" stop-color="#F44336"/>
			<stop offset=".99" stop-color="#9C27B0"/>
		</linearGradient>
		<linearGradient id="d" x1="14.902" x2="15.844" y1="5.096" y2="4.154" gradientUnits="userSpaceOnUse">
			<stop stop-color="#FFC107"/>
			<stop offset=".507" stop-color="#F44336"/>
			<stop offset=".99" stop-color="#9C27B0"/>
		</linearGradient>
		<clipPath id="a">
			<path fill="#fff" d="M0 0h20v20H0z"/>
		</clipPath>
	</defs>
</svg>
