<svg xmlns="http://www.w3.org/2000/svg" width="16" height="16" fill="none"><g clip-path="url(#a)"><path fill="#fff" d="m15.952 14.85-5.194-5.194A5.946 5.946 0 0 0 12 6a5.964 5.964 0 0 0-1.758-4.242A5.956 5.956 0 0 0 6 0C4.398 0 2.89.626 1.758 1.758A5.952 5.952 0 0 0 0 6c0 1.602.626 3.11 1.758 4.242A5.952 5.952 0 0 0 6 12a5.95 5.95 0 0 0 3.654-1.24l5.194 5.192a.162.162 0 0 0 .179.036.162.162 0 0 0 .053-.036l.872-.87a.162.162 0 0 0 .036-.179.163.163 0 0 0-.036-.053ZM9.168 9.168A4.456 4.456 0 0 1 6 10.48a4.456 4.456 0 0 1-3.168-1.312A4.456 4.456 0 0 1 1.52 6c0-1.196.466-2.322 1.312-3.168A4.456 4.456 0 0 1 6 1.52c1.196 0 2.322.464 3.168 1.312A4.456 4.456 0 0 1 10.48 6a4.452 4.452 0 0 1-1.312 3.168Z"/></g><defs><clipPath id="a"><path fill="#fff" d="M0 0h16v16H0z"/></clipPath></defs></svg>