<svg xmlns="http://www.w3.org/2000/svg" width="20" height="20" fill="none">
	<g clip-path="url(#a)">
		<path fill="#6F73EE"
			  d="M19.703 7.229a1.382 1.382 0 0 0-1.087-.521h-3.852l-2.088-4.783a.586.586 0 1 0-1.074.47l1.883 4.313h-6.97l1.883-4.314a.586.586 0 0 0-1.074-.469L5.236 6.708H1.384c-.427 0-.823.19-1.087.521a1.35 1.35 0 0 0-.263 1.148l2.057 8.984a1.373 1.373 0 0 0 1.35 1.065h13.118c.651 0 1.206-.438 1.35-1.065l2.056-8.984a1.35 1.35 0 0 0-.262-1.148ZM16.56 17.254H3.441a.21.21 0 0 1-.207-.155L1.177 8.115a.179.179 0 0 1 .036-.156.213.213 0 0 1 .171-.08h3.34l-.153.352a.586.586 0 0 0 1.073.47l.359-.821h7.994l.359.82a.586.586 0 1 0 1.074-.469l-.154-.351h3.34c.093 0 .147.05.17.08a.18.18 0 0 1 .037.155l-2.057 8.984a.21.21 0 0 1-.207.155Z"/>
		<path stroke="#6F73EE"
			  d="M19.703 7.229a1.382 1.382 0 0 0-1.087-.521h-3.852l-2.088-4.783a.586.586 0 1 0-1.074.47l1.883 4.313h-6.97l1.883-4.314a.586.586 0 0 0-1.074-.469L5.236 6.708H1.384c-.427 0-.823.19-1.087.521a1.35 1.35 0 0 0-.263 1.148l2.057 8.984a1.373 1.373 0 0 0 1.35 1.065h13.118c.651 0 1.206-.438 1.35-1.065l2.056-8.984a1.35 1.35 0 0 0-.262-1.148ZM16.56 17.254H3.441a.21.21 0 0 1-.207-.155L1.177 8.115a.179.179 0 0 1 .036-.156.213.213 0 0 1 .171-.08h3.34l-.153.352a.586.586 0 0 0 1.073.47l.359-.821h7.994l.359.82a.586.586 0 1 0 1.074-.469l-.154-.351h3.34c.093 0 .147.05.17.08a.18.18 0 0 1 .037.155l-2.057 8.984a.21.21 0 0 1-.207.155Z"/>
		<path fill="#6F73EE"
			  d="M6.484 10.419a.586.586 0 0 0-.586.586v4.297a.586.586 0 0 0 1.172 0v-4.297a.586.586 0 0 0-.586-.586Z"/>
		<path stroke="#6F73EE"
			  d="M6.484 10.419a.586.586 0 0 0-.586.586v4.297a.586.586 0 0 0 1.172 0v-4.297a.586.586 0 0 0-.586-.586Z"/>
		<path fill="#6F73EE"
			  d="M10 10.419a.586.586 0 0 0-.586.586v4.297a.586.586 0 0 0 1.172 0v-4.297a.586.586 0 0 0-.586-.586Z"/>
		<path stroke="#6F73EE"
			  d="M10 10.419a.586.586 0 0 0-.586.586v4.297a.586.586 0 0 0 1.172 0v-4.297a.586.586 0 0 0-.586-.586Z"/>
		<path fill="#6F73EE"
			  d="M13.516 10.419a.586.586 0 0 0-.586.586v4.297a.586.586 0 1 0 1.172 0v-4.297a.586.586 0 0 0-.586-.586Z"/>
		<path stroke="#6F73EE"
			  d="M13.516 10.419a.586.586 0 0 0-.586.586v4.297a.586.586 0 1 0 1.172 0v-4.297a.586.586 0 0 0-.586-.586Z"/>
	</g>
	<defs>
		<clipPath id="a">
			<path fill="#fff" d="M0 0h20v20H0z"/>
		</clipPath>
	</defs>
</svg>
