<svg xmlns="http://www.w3.org/2000/svg" width="18" height="18" fill="none">
	<path fill="currentColor"
		  d="M8.472 4.564V1.236a8.938 8.938 0 0 0-5.46 2.263l2.353 2.353a5.64 5.64 0 0 1 3.107-1.288ZM4.619 6.597 2.266 4.244A8.937 8.937 0 0 0 0 9.705h3.328a5.64 5.64 0 0 1 1.29-3.108ZM14.67 9.705h3.328a8.938 8.938 0 0 0-2.266-5.46L13.38 6.596a5.641 5.641 0 0 1 1.29 3.108ZM14.67 10.76a5.66 5.66 0 0 1-1.644 3.502.528.528 0 0 0 0 .747l1.6 1.6a.526.526 0 0 0 .747 0 8.948 8.948 0 0 0 2.626-5.85h-3.33ZM3.272 13.786c.147-.232.37-.58.638-.993a5.617 5.617 0 0 1-.58-2.033H0a8.949 8.949 0 0 0 2.626 5.85.526.526 0 0 0 .747 0l.548-.549a1.584 1.584 0 0 1-.433-.307 1.573 1.573 0 0 1-.216-1.968ZM9.527 1.236v3.328a5.64 5.64 0 0 1 3.108 1.288l2.353-2.353a8.938 8.938 0 0 0-5.46-2.263ZM7.827 9.07c-.816.816-3.377 4.827-3.666 5.281a.527.527 0 0 0 .728.728c.454-.289 4.465-2.85 5.282-3.666a1.659 1.659 0 0 0 0-2.343 1.659 1.659 0 0 0-2.344 0Z"/>
</svg>
