<svg xmlns="http://www.w3.org/2000/svg" width="20" height="20" fill="none">
	<g clip-path="url(#a)">
		<path fill="#E53935"
			  d="M.436 14.895c.408 1.448 1.658 1.713 1.741 1.764 2.056.56 13.58.562 15.666 0 1.429-.413 1.692-1.68 1.74-1.764.545-2.895.58-6.67-.024-9.954l.025.163c-.409-1.448-1.658-1.713-1.741-1.764-2.028-.55-13.582-.572-15.666 0C.747 3.754.485 5.02.437 5.104c-.583 3.043-.613 6.533 0 9.79Zm7.572-1.853V6.965l5.222 3.043-5.222 3.034Z"/>
	</g>
	<defs>
		<clipPath id="a">
			<path fill="#fff" d="M0 0h20v20H0z"/>
		</clipPath>
	</defs>
</svg>
