<?xml version="1.0" encoding="UTF-8"?><!DOCTYPE svg PUBLIC "-//W3C//DTD SVG 1.1//EN" "http://www.w3.org/Graphics/SVG/1.1/DTD/svg11.dtd"><svg xmlns="http://www.w3.org/2000/svg" xmlns:xlink="http://www.w3.org/1999/xlink"><defs><clipPath id="a"><path fill="#fff" d="M0 0h16v16H0z"/></clipPath>
		<clipPath id="a">
			<path fill="#fff" d="M0 .5h12v12H0z"/>
		</clipPath>
	
		<clipPath id="a">
			<path fill="#fff" d="M0 .5h12v12H0z"/>
		</clipPath>
	
		<clipPath id="a">
			<path fill="#fff" d="M.5.5h12v12H.5z"/>
		</clipPath>
	</defs><symbol id="menu" viewBox="0 0 14 15">
	<path stroke="currentColor" stroke-linecap="round" stroke-width="1.5" d="M.75 1.25h13.5M.75 7.25h13.5M7.672 13.25h6.577"/>
</symbol><symbol id="plus" viewBox="0 0 8 8">
	<path fill="currentColor" d="M0 4.653h8V3.347H0v1.306ZM3.299 0v8h1.402V0H3.299Z"/>
</symbol><symbol id="poly" viewBox="0 0 6 6">
	<path d="M3.83467 4.73501C3.43943 5.33402 2.56057 5.33402 2.16532 4.73501L0.559123 2.30074C0.120431 1.63589 0.597252 0.75 1.3938 0.75L4.6062 0.75C5.40275 0.75 5.87957 1.63589 5.44088 2.30074L3.83467 4.73501Z" fill="#282739"/>
</symbol><symbol id="search"><g clip-path="url(#a)"><path fill="#fff" d="m15.952 14.85-5.194-5.194A5.946 5.946 0 0 0 12 6a5.964 5.964 0 0 0-1.758-4.242A5.956 5.956 0 0 0 6 0C4.398 0 2.89.626 1.758 1.758A5.952 5.952 0 0 0 0 6c0 1.602.626 3.11 1.758 4.242A5.952 5.952 0 0 0 6 12a5.95 5.95 0 0 0 3.654-1.24l5.194 5.192a.162.162 0 0 0 .179.036.162.162 0 0 0 .053-.036l.872-.87a.162.162 0 0 0 .036-.179.163.163 0 0 0-.036-.053ZM9.168 9.168A4.456 4.456 0 0 1 6 10.48a4.456 4.456 0 0 1-3.168-1.312A4.456 4.456 0 0 1 1.52 6c0-1.196.466-2.322 1.312-3.168A4.456 4.456 0 0 1 6 1.52c1.196 0 2.322.464 3.168 1.312A4.456 4.456 0 0 1 10.48 6a4.452 4.452 0 0 1-1.312 3.168Z"/></g></symbol><symbol id="telegram" viewBox="0 0 13 13">
	<g clip-path="url(#a)">
		<path fill="currentColor" d="m4.709 8.09-.199 2.793c.284 0 .407-.122.555-.269l1.331-1.272 2.76 2.02c.505.282.862.134.998-.465l1.811-8.486c.161-.749-.27-1.041-.763-.858L.557 5.63c-.726.282-.715.687-.123.87l2.721.847L9.477 3.39c.297-.197.568-.088.345.11L4.71 8.09Z"/>
	</g>
	
</symbol><symbol id="viber" viewBox="0 0 13 13">
	<g fill="currentColor" clip-path="url(#a)">
		<path d="M6.407 7.28a.351.351 0 0 1-.497 0L4.312 5.682a.352.352 0 0 1 0-.497l.284-.284-.834-.834-.683.683a.59.59 0 0 0 0 .834l2.929 2.93c.11.11.258.171.417.171a.586.586 0 0 0 .417-.172l.683-.683-.834-.834-.284.284Z"/>
		<path d="M11.496 4.735c0-1.127-.442-2.19-1.244-2.991A4.205 4.205 0 0 0 7.26.5H4.75C3.625.5 2.562.942 1.76 1.744A4.205 4.205 0 0 0 .515 4.735v1.973a4.251 4.251 0 0 0 2.509 3.865v1.133c0 .586.327.794.608.794.201 0 .402-.1.597-.294l1.262-1.263h1.769c1.127 0 2.189-.441 2.991-1.244a4.205 4.205 0 0 0 1.244-2.991V4.735ZM8.272 8.08l-.932.932a1.284 1.284 0 0 1-.914.377c-.346 0-.671-.134-.915-.377L2.583 6.08a1.295 1.295 0 0 1 0-1.828l.932-.932a.351.351 0 0 1 .497 0l1.331 1.331a.351.351 0 0 1 0 .498l-.284.284 1.1 1.1.284-.284a.352.352 0 0 1 .498 0l1.331 1.331a.351.351 0 0 1 0 .498ZM5.739 3.913c0-.194.158-.352.352-.352 1.218 0 2.21.991 2.21 2.21a.352.352 0 1 1-.704 0c0-.83-.676-1.506-1.506-1.506a.352.352 0 0 1-.352-.352Zm3.716 2.21a.352.352 0 0 1-.352-.352c0-.805-.313-1.561-.882-2.13a2.993 2.993 0 0 0-2.13-.883.352.352 0 0 1 0-.703c.992 0 1.925.387 2.627 1.088a3.69 3.69 0 0 1 1.088 2.628.352.352 0 0 1-.351.351Z"/>
	</g>
	
</symbol><symbol id="whatsapp" viewBox="0 0 13 13">
	<g clip-path="url(#a)">
		<path fill="currentColor" d="M6.497.504A5.996 5.996 0 0 0 1.45 9.736l-.933 2.421a.25.25 0 0 0 .317.325l2.499-.892A5.996 5.996 0 1 0 6.497.504Z"/>
		<path fill="#F7F7F7" d="M9.357 7.525s-.612-.3-.995-.5c-.434-.224-.944.195-1.184.433a3.007 3.007 0 0 1-1.003-.637 3.004 3.004 0 0 1-.636-1.003c.238-.24.655-.75.433-1.183-.198-.384-.5-.996-.5-.996a.25.25 0 0 0-.223-.138h-.5a1.506 1.506 0 0 0-1.249 1.5c0 .784.939 2.291 1.572 2.925.633.633 2.14 1.572 2.925 1.572a1.506 1.506 0 0 0 1.5-1.25V7.75a.25.25 0 0 0-.14-.224Z"/>
	</g>
	
</symbol></svg>