<?xml version="1.0" encoding="UTF-8"?><!DOCTYPE svg PUBLIC "-//W3C//DTD SVG 1.1//EN" "http://www.w3.org/Graphics/SVG/1.1/DTD/svg11.dtd"><svg xmlns="http://www.w3.org/2000/svg" xmlns:xlink="http://www.w3.org/1999/xlink"><defs>
		<linearGradient id="paint0_linear_400_19545" x1="1.83081" y1="18.1693" x2="18.1692" y2="1.83069" gradientUnits="userSpaceOnUse">
			<stop offset="" stop-color="#FFC107"/>
			<stop offset="0.507" stop-color="#F44336"/>
			<stop offset="0.99" stop-color="#9C27B0"/>
		</linearGradient>
		<linearGradient id="paint1_linear_400_19545" x1="6.46456" y1="13.5354" x2="13.5354" y2="6.46456" gradientUnits="userSpaceOnUse">
			<stop offset="" stop-color="#FFC107"/>
			<stop offset="0.507" stop-color="#F44336"/>
			<stop offset="0.99" stop-color="#9C27B0"/>
		</linearGradient>
		<linearGradient id="paint2_linear_400_19545" x1="14.9022" y1="5.09642" x2="15.8443" y2="4.15417" gradientUnits="userSpaceOnUse">
			<stop offset="" stop-color="#FFC107"/>
			<stop offset="0.507" stop-color="#F44336"/>
			<stop offset="0.99" stop-color="#9C27B0"/>
		</linearGradient>
		<clipPath id="clip0_400_19545">
			<rect width="20" height="20" fill="white"/>
		</clipPath>
	<clipPath id="a"><path fill="#fff" d="M0 0h16v16H0z"/></clipPath>
		<clipPath id="a">
			<path fill="#fff" d="M0 0h20v20H0z"/>
		</clipPath>
	
		<clipPath id="a">
			<path fill="#fff" d="M0 0h20v20H0z"/>
		</clipPath>
	
		<clipPath id="a">
			<path fill="#fff" d="M0 0h20v20H0z"/>
		</clipPath>
	
		<clipPath id="a">
			<path fill="#fff" d="M0 .5h12v12H0z"/>
		</clipPath>
	
		<clipPath id="a">
			<path fill="#fff" d="M0 0h18v18H0z"/>
		</clipPath>
	
		<clipPath id="a">
			<path fill="#fff" d="M0 .5h12v12H0z"/>
		</clipPath>
	
		<clipPath id="a">
			<path fill="#fff" d="M0 0h20v20H0z"/>
		</clipPath>
	
		<clipPath id="a">
			<path fill="#fff" d="M.5.5h12v12H.5z"/>
		</clipPath>
	
		<clipPath id="a">
			<path fill="#fff" d="M0 0h20v20H0z"/>
		</clipPath>
	</defs><symbol id="accumulator-1">
	<path fill="currentColor" d="M16.5 3.75V3a.75.75 0 0 0-.75-.75H13.5a.75.75 0 0 0-.75.75v.75h-.22l-.31-.31A1.51 1.51 0 0 0 11.16 3H6.84c-.394 0-.78.16-1.06.44l-.31.31h-.22V3a.75.75 0 0 0-.75-.75H2.25A.75.75 0 0 0 1.5 3v.75c-.827 0-1.5.673-1.5 1.5v9c0 .827.673 1.5 1.5 1.5h15c.827 0 1.5-.673 1.5-1.5v-9c0-.827-.673-1.5-1.5-1.5ZM4.125 7.5h-1.5a.375.375 0 1 1 0-.75h1.5a.375.375 0 1 1 0 .75Zm11.25 0H15v.375a.375.375 0 1 1-.75 0V7.5h-.375a.375.375 0 1 1 0-.75h.375v-.375a.375.375 0 1 1 .75 0v.375h.375a.375.375 0 1 1 0 .75Z"/>
</symbol><symbol id="akar-plus">
	<path stroke="currentColor" stroke-width="2" d="M10.14 10h-10m10 10V10v10Zm0-10V0v10Zm0 0h10-10Z"/>
</symbol><symbol id="arrow-4">
	<path fill="currentColor" d="M11.46 5.46a.65.65 0 0 0 0-.92L7.323.404a.65.65 0 1 0-.92.919L10.082 5 6.404 8.677a.65.65 0 1 0 .919.92L11.46 5.46ZM0 5.65h11v-1.3H0v1.3Z"/>
</symbol><symbol id="balance2">
	<mask id="a" fill="#fff">
		<path d="M19.414 11.264h-.637l-2.042-4.939a.586.586 0 0 0-.08-1.165h-5.037A1.737 1.737 0 0 0 9.986 4.01c-.751 0-1.392.48-1.633 1.149H3.345a.586.586 0 0 0-.08 1.165l-2.042 4.939H.586A.586.586 0 0 0 0 11.85a4.144 4.144 0 0 0 4.139 4.139 4.144 4.144 0 0 0 4.139-4.14.586.586 0 0 0-.586-.585h-.638L5.015 6.33h3.338c.241.67.882 1.149 1.633 1.149.75 0 1.39-.48 1.632-1.149h3.367l-2.04 4.933h-.637a.586.586 0 0 0-.586.586 4.144 4.144 0 0 0 4.14 4.139A4.143 4.143 0 0 0 20 11.849a.586.586 0 0 0-.586-.585ZM4.14 14.817a2.972 2.972 0 0 1-2.909-2.381h5.818a2.972 2.972 0 0 1-2.91 2.38Zm1.647-3.553H2.492l1.647-3.985 1.647 3.985Zm4.2-4.956a.563.563 0 1 1 0-1.126.563.563 0 0 1 0 1.126Zm5.875.971 1.648 3.985h-3.295l1.647-3.985Zm0 7.538a2.972 2.972 0 0 1-2.909-2.381h5.818a2.972 2.972 0 0 1-2.909 2.38Z"/>
	</mask>
	<path fill="currentColor" d="M19.414 11.264h-.637l-2.042-4.939a.586.586 0 0 0-.08-1.165h-5.037A1.737 1.737 0 0 0 9.986 4.01c-.751 0-1.392.48-1.633 1.149H3.345a.586.586 0 0 0-.08 1.165l-2.042 4.939H.586A.586.586 0 0 0 0 11.85a4.144 4.144 0 0 0 4.139 4.139 4.144 4.144 0 0 0 4.139-4.14.586.586 0 0 0-.586-.585h-.638L5.015 6.33h3.338c.241.67.882 1.149 1.633 1.149.75 0 1.39-.48 1.632-1.149h3.367l-2.04 4.933h-.637a.586.586 0 0 0-.586.586 4.144 4.144 0 0 0 4.14 4.139A4.143 4.143 0 0 0 20 11.849a.586.586 0 0 0-.586-.585ZM4.14 14.817a2.972 2.972 0 0 1-2.909-2.381h5.818a2.972 2.972 0 0 1-2.91 2.38Zm1.647-3.553H2.492l1.647-3.985 1.647 3.985Zm4.2-4.956a.563.563 0 1 1 0-1.126.563.563 0 0 1 0 1.126Zm5.875.971 1.648 3.985h-3.295l1.647-3.985Zm0 7.538a2.972 2.972 0 0 1-2.909-2.381h5.818a2.972 2.972 0 0 1-2.909 2.38Z"/>
	<path fill="none" d="m18.777 11.264-3.697 1.528 1.022 2.472h2.675v-4Zm-2.042-4.939-.54-3.963-5.138.7 1.981 4.792 3.697-1.529ZM11.618 5.16 7.854 6.515l.953 2.645h2.81v-4Zm-3.265 0v4h2.811l.953-2.645L8.353 5.16ZM3.265 6.325l3.697 1.529L8.943 3.06l-5.138-.699-.54 3.963Zm-2.042 4.939v4h2.675l1.022-2.472-3.697-1.528Zm5.831 0-3.696 1.528 1.022 2.472h2.674v-4ZM5.015 6.33v-4H-.967L1.318 7.86 5.015 6.33Zm3.338 0 3.764-1.355-.953-2.645h-2.81v4Zm3.265 0v-4H8.807l-.953 2.645 3.764 1.355Zm3.367 0 3.697 1.529 2.285-5.529h-5.982v4Zm-2.04 4.933v4h2.675l1.022-2.472-3.696-1.528ZM1.23 12.436v-4h-4.884l.962 4.788 3.922-.788Zm5.818 0 3.921.788.963-4.788H7.048v4Zm-1.262-1.172v4h5.982L9.483 9.736l-3.697 1.528Zm-3.294 0-3.697-1.528-2.286 5.528h5.983v-4Zm1.647-3.985 3.696-1.528L4.14-3.19.442 5.75 4.14 7.279Zm11.722 0 3.697-1.528L15.86-3.19 12.165 5.75l3.696 1.528Zm1.648 3.985v4h5.982l-2.286-5.528-3.696 1.528Zm-3.295 0-3.697-1.528-2.285 5.528h5.982v-4Zm-1.262 1.172v-4H8.068l.963 4.788 3.921-.788Zm5.818 0 3.922.788.962-4.788H18.77v4Zm.644-5.172h-.637v8h.637v-8Zm3.06 2.472L20.43 4.797l-7.393 3.057 2.042 4.938 7.393-3.056Zm-5.2.553a4.586 4.586 0 0 0 3.967-4.544h-8a3.414 3.414 0 0 1 2.955-3.383l1.078 7.927Zm3.967-4.544a4.586 4.586 0 0 0-4.586-4.585v8a3.414 3.414 0 0 1-3.414-3.415h8ZM16.655 1.16h-5.037v8h5.037v-8Zm-1.274 2.644A5.737 5.737 0 0 0 9.986.011v8c-.994 0-1.821-.633-2.132-1.496l7.527-2.71ZM9.986.011A5.737 5.737 0 0 0 4.59 3.804l7.527 2.71a2.263 2.263 0 0 1-2.131 1.497v-8ZM8.353 1.16H3.345v8h5.008v-8Zm-5.008 0a4.586 4.586 0 0 0-4.586 4.585h8A3.414 3.414 0 0 1 3.345 9.16v-8Zm-4.586 4.585a4.586 4.586 0 0 0 3.967 4.544l1.079-7.927a3.414 3.414 0 0 1 2.954 3.383h-8Zm.81-.948-2.042 4.939 7.393 3.056 2.042-4.938-7.393-3.057Zm1.654 2.467H.586v8h.637v-8Zm-.637 0A4.586 4.586 0 0 0-4 11.85h8a3.414 3.414 0 0 1-3.414 3.414v-8ZM-4 11.85a8.144 8.144 0 0 0 8.139 8.139v-8a.119.119 0 0 1-.05-.01.155.155 0 0 1-.047-.032.154.154 0 0 1-.033-.048.117.117 0 0 1-.009-.05h-8Zm8.139 8.139a8.144 8.144 0 0 0 8.139-8.14h-8a.117.117 0 0 1-.01.05.153.153 0 0 1-.032.048.155.155 0 0 1-.048.033.119.119 0 0 1-.05.009v8Zm8.139-8.14a4.586 4.586 0 0 0-4.586-4.585v8a3.414 3.414 0 0 1-3.414-3.414h8ZM7.692 7.265h-.638v8h.638v-8Zm3.059 2.472L8.71 4.803 1.319 7.86l2.04 4.932 7.393-3.056Zm-5.736.595h3.338v-8H5.015v8ZM4.59 7.687a5.737 5.737 0 0 0 5.396 3.793v-8c.993 0 1.82.633 2.13 1.496L4.59 7.686Zm5.396 3.793a5.737 5.737 0 0 0 5.395-3.793l-7.527-2.71A2.263 2.263 0 0 1 9.986 3.48v8Zm1.632-1.149h3.367v-8h-3.367v8Zm-.33-5.528L9.25 9.736l7.393 3.056 2.04-4.932-7.394-3.057Zm1.658 2.46h-.638v8h.638v-8Zm-.638 0a4.586 4.586 0 0 0-4.586 4.587h8a3.414 3.414 0 0 1-3.414 3.414v-8ZM7.722 11.85a8.144 8.144 0 0 0 8.14 8.139v-8a.119.119 0 0 1-.05-.01.155.155 0 0 1-.048-.032.153.153 0 0 1-.033-.048.117.117 0 0 1-.009-.05h-8Zm8.14 8.139A8.144 8.144 0 0 0 24 11.849h-8a.118.118 0 0 1-.009.05.157.157 0 0 1-.033.048.156.156 0 0 1-.048.033.119.119 0 0 1-.049.009v8ZM24 11.849a4.586 4.586 0 0 0-4.586-4.585v8A3.414 3.414 0 0 1 16 11.85h8ZM4.139 10.818c.51 0 .918.358 1.012.83l-7.843 1.577c.64 3.185 3.45 5.593 6.83 5.593v-8ZM1.23 16.436h5.818v-8H1.23v8Zm1.896-4.789c.095-.472.503-.83 1.013-.83v8c3.38 0 6.19-2.408 6.83-5.593l-7.843-1.577Zm2.66-4.383H2.492v8h3.294v-8Zm.402 5.528 1.647-3.984L.442 5.75l-1.647 3.985 7.393 3.056ZM.442 8.808l1.648 3.984 7.393-3.056L7.835 5.75.442 8.808Zm9.544-6.5c1.899 0 3.437 1.538 3.437 3.437h-8a4.563 4.563 0 0 0 4.563 4.563v-8Zm3.437 3.437a3.437 3.437 0 0 1-3.437 3.438v-8a4.563 4.563 0 0 0-4.563 4.562h8ZM9.986 9.183a3.437 3.437 0 0 1-3.438-3.438h8a4.563 4.563 0 0 0-4.562-4.562v8ZM6.548 5.745a3.437 3.437 0 0 1 3.438-3.437v8a4.563 4.563 0 0 0 4.562-4.563h-8Zm5.617 3.063 1.647 3.984 7.393-3.056-1.647-3.985-7.393 3.057Zm5.344-1.544h-3.295v8h3.295v-8Zm.401 5.528 1.648-3.984-7.393-3.057-1.648 3.985 7.393 3.056Zm-2.049-1.975c.51 0 .918.358 1.013.83L9.03 13.224c.64 3.185 3.45 5.593 6.83 5.593v-8Zm-2.909 5.619h5.818v-8h-5.818v8Zm1.896-4.789c.095-.472.503-.83 1.013-.83v8c3.38 0 6.19-2.408 6.83-5.593l-7.842-1.577Z" mask="url(#a)"/>
</symbol><symbol id="burger-menu">
	<path stroke="#6F73EE" stroke-linecap="round" stroke-width="1.5" d="M.75 1.25h13.5M.75 7.25h13.5M7.672 13.25h6.577"/>
</symbol><symbol id="call-2">
	<path fill="#6F73EE" d="M14.716 10.502c-.98 0-1.941-.153-2.853-.454-.446-.153-.995-.013-1.268.267l-1.799 1.358C6.71 10.56 5.424 9.275 4.326 7.204l1.318-1.752c.343-.342.465-.842.318-1.31a9.098 9.098 0 0 1-.456-2.858C5.506.576 4.93 0 4.222 0H1.284C.576 0 0 .576 0 1.284 0 9.398 6.602 16 14.716 16c.708 0 1.284-.576 1.284-1.284v-2.93c0-.708-.576-1.284-1.284-1.284Z"/>
</symbol><symbol id="heart">
	<path fill="currentColor" d="M17.995 5.515A5.138 5.138 0 0 0 13.264 2.4a5.155 5.155 0 0 0-3.261 1.16A5.155 5.155 0 0 0 6.741 2.4c-.691 0-1.36.133-1.992.399a5.127 5.127 0 0 0-3.148 4.717c0 .654.132 1.336.394 2.029.22.58.535 1.18.938 1.787.638.96 1.515 1.962 2.604 2.978a29.144 29.144 0 0 0 3.667 2.893l.461.298a.62.62 0 0 0 .671 0l.46-.298c.077-.05 1.862-1.21 3.668-2.893 1.09-1.016 1.967-2.017 2.604-2.978.403-.607.72-1.208.938-1.787a5.733 5.733 0 0 0 .394-2.029 5.042 5.042 0 0 0-.406-2.001Zm-7.993 10.433S3.08 11.468 3.08 7.516c0-2.001 1.639-3.623 3.661-3.623 1.422 0 2.655.8 3.261 1.971a3.668 3.668 0 0 1 3.262-1.971c2.022 0 3.662 1.622 3.662 3.623 0 3.952-6.923 8.432-6.923 8.432Z"/>
</symbol><symbol id="inst" viewBox="0 0 20 20">
	<g clip-path="url(#clip0_400_19545)">
		<path d="M13.75 0H6.25C2.79875 0 0 2.79875 0 6.25V13.75C0 17.2013 2.79875 20 6.25 20H13.75C17.2013 20 20 17.2013 20 13.75V6.25C20 2.79875 17.2013 0 13.75 0ZM18.125 13.75C18.125 16.1625 16.1625 18.125 13.75 18.125H6.25C3.8375 18.125 1.875 16.1625 1.875 13.75V6.25C1.875 3.8375 3.8375 1.875 6.25 1.875H13.75C16.1625 1.875 18.125 3.8375 18.125 6.25V13.75Z" fill="url(#paint0_linear_400_19545)"/>
		<path d="M10 5C7.23875 5 5 7.23875 5 10C5 12.7613 7.23875 15 10 15C12.7613 15 15 12.7613 15 10C15 7.23875 12.7613 5 10 5ZM10 13.125C8.2775 13.125 6.875 11.7225 6.875 10C6.875 8.27625 8.2775 6.875 10 6.875C11.7225 6.875 13.125 8.27625 13.125 10C13.125 11.7225 11.7225 13.125 10 13.125Z" fill="url(#paint1_linear_400_19545)"/>
		<path d="M15.3733 5.29148C15.7412 5.29148 16.0395 4.99319 16.0395 4.62523C16.0395 4.25727 15.7412 3.95898 15.3733 3.95898C15.0053 3.95898 14.707 4.25727 14.707 4.62523C14.707 4.99319 15.0053 5.29148 15.3733 5.29148Z" fill="url(#paint2_linear_400_19545)"/>
	</g>
	
</symbol><symbol id="menu" viewBox="0 0 14 15">
	<path stroke="currentColor" stroke-linecap="round" stroke-width="1.5" d="M.75 1.25h13.5M.75 7.25h13.5M7.672 13.25h6.577"/>
</symbol><symbol id="outlined-home">
	<path fill="currentColor" d="m13.864 7.398-5.66-5.657-.38-.38a.461.461 0 0 0-.65 0l-6.04 6.037a.936.936 0 0 0-.275.674A.947.947 0 0 0 1.81 9h.623v4.771h10.133V9h.636a.933.933 0 0 0 .867-.58.932.932 0 0 0-.205-1.021ZM8.32 12.716H6.68V9.727h1.64v2.989Zm3.192-4.771v4.77H9.257v-3.34a.586.586 0 0 0-.586-.585H6.328a.586.586 0 0 0-.586.586v3.34H3.487V7.945H2.081l5.42-5.416.338.338 5.08 5.078h-1.407Z"/>
</symbol><symbol id="plus" viewBox="0 0 8 8">
	<path fill="currentColor" d="M0 4.653h8V3.347H0v1.306ZM3.299 0v8h1.402V0H3.299Z"/>
</symbol><symbol id="poly" viewBox="0 0 6 6">
	<path d="M3.83467 4.73501C3.43943 5.33402 2.56057 5.33402 2.16532 4.73501L0.559123 2.30074C0.120431 1.63589 0.597252 0.75 1.3938 0.75L4.6062 0.75C5.40275 0.75 5.87957 1.63589 5.44088 2.30074L3.83467 4.73501Z" fill="currentColor"/>
</symbol><symbol id="power-1">
	<path fill="currentColor" d="M14.224.26a.484.484 0 0 0-.428-.26H6.73a.484.484 0 0 0-.463.346L3.743 8.804a.482.482 0 0 0 .463.62h3.962l-1.596 7.997a.484.484 0 0 0 .894.335l6.224-10.93a.485.485 0 0 0-.42-.725h-2.803l3.725-5.34a.482.482 0 0 0 .032-.5Z"/>
</symbol><symbol id="search"><g clip-path="url(#a)"><path fill="#fff" d="m15.952 14.85-5.194-5.194A5.946 5.946 0 0 0 12 6a5.964 5.964 0 0 0-1.758-4.242A5.956 5.956 0 0 0 6 0C4.398 0 2.89.626 1.758 1.758A5.952 5.952 0 0 0 0 6c0 1.602.626 3.11 1.758 4.242A5.952 5.952 0 0 0 6 12a5.95 5.95 0 0 0 3.654-1.24l5.194 5.192a.162.162 0 0 0 .179.036.162.162 0 0 0 .053-.036l.872-.87a.162.162 0 0 0 .036-.179.163.163 0 0 0-.036-.053ZM9.168 9.168A4.456 4.456 0 0 1 6 10.48a4.456 4.456 0 0 1-3.168-1.312A4.456 4.456 0 0 1 1.52 6c0-1.196.466-2.322 1.312-3.168A4.456 4.456 0 0 1 6 1.52c1.196 0 2.322.464 3.168 1.312A4.456 4.456 0 0 1 10.48 6a4.452 4.452 0 0 1-1.312 3.168Z"/></g></symbol><symbol id="share-1">
	<g clip-path="url(#a)">
		<path fill="currentColor" d="M15.423 13.453c-.959 0-1.822.414-2.421 1.072l-5.39-3.338a3.255 3.255 0 0 0 0-2.374l5.39-3.338a3.266 3.266 0 0 0 2.42 1.072 3.277 3.277 0 0 0 3.274-3.274A3.277 3.277 0 0 0 15.423 0a3.277 3.277 0 0 0-3.05 4.46L6.983 7.8a3.266 3.266 0 0 0-2.42-1.073A3.277 3.277 0 0 0 1.289 10a3.277 3.277 0 0 0 3.274 3.274c.958 0 1.821-.414 2.42-1.073l5.39 3.338a3.277 3.277 0 0 0 3.05 4.46 3.277 3.277 0 0 0 3.273-3.273 3.277 3.277 0 0 0-3.273-3.273Zm-2.08-10.18c0-1.146.933-2.08 2.08-2.08s2.08.934 2.08 2.08c0 1.147-.933 2.08-2.08 2.08a2.082 2.082 0 0 1-2.08-2.08Zm-8.78 8.807A2.082 2.082 0 0 1 2.483 10c0-1.147.933-2.08 2.08-2.08s2.08.933 2.08 2.08-.933 2.08-2.08 2.08Zm8.78 4.646c0-1.146.933-2.08 2.08-2.08s2.08.933 2.08 2.08-.933 2.08-2.08 2.08a2.082 2.082 0 0 1-2.08-2.08Z"/>
	</g>
	
</symbol><symbol id="shopping-cart-1-2">
	<g clip-path="url(#a)">
		<path fill="#6F73EE" d="M19.703 7.229a1.382 1.382 0 0 0-1.087-.521h-3.852l-2.088-4.783a.586.586 0 1 0-1.074.47l1.883 4.313h-6.97l1.883-4.314a.586.586 0 0 0-1.074-.469L5.236 6.708H1.384c-.427 0-.823.19-1.087.521a1.35 1.35 0 0 0-.263 1.148l2.057 8.984a1.373 1.373 0 0 0 1.35 1.065h13.118c.651 0 1.206-.438 1.35-1.065l2.056-8.984a1.35 1.35 0 0 0-.262-1.148ZM16.56 17.254H3.441a.21.21 0 0 1-.207-.155L1.177 8.115a.179.179 0 0 1 .036-.156.213.213 0 0 1 .171-.08h3.34l-.153.352a.586.586 0 0 0 1.073.47l.359-.821h7.994l.359.82a.586.586 0 1 0 1.074-.469l-.154-.351h3.34c.093 0 .147.05.17.08a.18.18 0 0 1 .037.155l-2.057 8.984a.21.21 0 0 1-.207.155Z"/>
		<path stroke="#6F73EE" d="M19.703 7.229a1.382 1.382 0 0 0-1.087-.521h-3.852l-2.088-4.783a.586.586 0 1 0-1.074.47l1.883 4.313h-6.97l1.883-4.314a.586.586 0 0 0-1.074-.469L5.236 6.708H1.384c-.427 0-.823.19-1.087.521a1.35 1.35 0 0 0-.263 1.148l2.057 8.984a1.373 1.373 0 0 0 1.35 1.065h13.118c.651 0 1.206-.438 1.35-1.065l2.056-8.984a1.35 1.35 0 0 0-.262-1.148ZM16.56 17.254H3.441a.21.21 0 0 1-.207-.155L1.177 8.115a.179.179 0 0 1 .036-.156.213.213 0 0 1 .171-.08h3.34l-.153.352a.586.586 0 0 0 1.073.47l.359-.821h7.994l.359.82a.586.586 0 1 0 1.074-.469l-.154-.351h3.34c.093 0 .147.05.17.08a.18.18 0 0 1 .037.155l-2.057 8.984a.21.21 0 0 1-.207.155Z"/>
		<path fill="#6F73EE" d="M6.484 10.419a.586.586 0 0 0-.586.586v4.297a.586.586 0 0 0 1.172 0v-4.297a.586.586 0 0 0-.586-.586Z"/>
		<path stroke="#6F73EE" d="M6.484 10.419a.586.586 0 0 0-.586.586v4.297a.586.586 0 0 0 1.172 0v-4.297a.586.586 0 0 0-.586-.586Z"/>
		<path fill="#6F73EE" d="M10 10.419a.586.586 0 0 0-.586.586v4.297a.586.586 0 0 0 1.172 0v-4.297a.586.586 0 0 0-.586-.586Z"/>
		<path stroke="#6F73EE" d="M10 10.419a.586.586 0 0 0-.586.586v4.297a.586.586 0 0 0 1.172 0v-4.297a.586.586 0 0 0-.586-.586Z"/>
		<path fill="#6F73EE" d="M13.516 10.419a.586.586 0 0 0-.586.586v4.297a.586.586 0 1 0 1.172 0v-4.297a.586.586 0 0 0-.586-.586Z"/>
		<path stroke="#6F73EE" d="M13.516 10.419a.586.586 0 0 0-.586.586v4.297a.586.586 0 1 0 1.172 0v-4.297a.586.586 0 0 0-.586-.586Z"/>
	</g>
	
</symbol><symbol id="shopping-cart2">
	<g clip-path="url(#a)">
		<path fill="#6F73EE" d="M19.152 7.254h-4.149l-2.327-5.33a.586.586 0 1 0-1.074.47l2.122 4.86H6.276l2.122-4.86a.586.586 0 0 0-1.074-.47l-2.327 5.33H.847c-.542 0-.945.492-.826 1.009l2.185 9.517c.087.378.43.646.827.646h13.934c.397 0 .74-.268.827-.646l2.185-9.517c.119-.517-.284-1.009-.827-1.009ZM5.107 9.051a.586.586 0 0 1-.537-.82l.44-1.008h1.28L5.643 8.7a.586.586 0 0 1-.537.351Zm1.963 6.25a.586.586 0 1 1-1.172 0v-4.297a.586.586 0 1 1 1.172 0v4.297Zm3.516 0a.586.586 0 0 1-1.172 0v-4.297a.586.586 0 0 1 1.172 0v4.297Zm3.516 0a.586.586 0 0 1-1.172 0v-4.297a.586.586 0 0 1 1.172 0v4.297Zm1.025-6.299a.583.583 0 0 1-.771-.302l-.645-1.477h1.278l.44 1.008a.586.586 0 0 1-.302.771Z"/>
	</g>
	
</symbol><symbol id="speedometer-1">
	<path fill="currentColor" d="M8.472 4.564V1.236a8.938 8.938 0 0 0-5.46 2.263l2.353 2.353a5.64 5.64 0 0 1 3.107-1.288ZM4.619 6.597 2.266 4.244A8.937 8.937 0 0 0 0 9.705h3.328a5.64 5.64 0 0 1 1.29-3.108ZM14.67 9.705h3.328a8.938 8.938 0 0 0-2.266-5.46L13.38 6.596a5.641 5.641 0 0 1 1.29 3.108ZM14.67 10.76a5.66 5.66 0 0 1-1.644 3.502.528.528 0 0 0 0 .747l1.6 1.6a.526.526 0 0 0 .747 0 8.948 8.948 0 0 0 2.626-5.85h-3.33ZM3.272 13.786c.147-.232.37-.58.638-.993a5.617 5.617 0 0 1-.58-2.033H0a8.949 8.949 0 0 0 2.626 5.85.526.526 0 0 0 .747 0l.548-.549a1.584 1.584 0 0 1-.433-.307 1.573 1.573 0 0 1-.216-1.968ZM9.527 1.236v3.328a5.64 5.64 0 0 1 3.108 1.288l2.353-2.353a8.938 8.938 0 0 0-5.46-2.263ZM7.827 9.07c-.816.816-3.377 4.827-3.666 5.281a.527.527 0 0 0 .728.728c.454-.289 4.465-2.85 5.282-3.666a1.659 1.659 0 0 0 0-2.343 1.659 1.659 0 0 0-2.344 0Z"/>
</symbol><symbol id="telegram" viewBox="0 0 13 13">
	<g clip-path="url(#a)">
		<path fill="currentColor" d="m4.709 8.09-.199 2.793c.284 0 .407-.122.555-.269l1.331-1.272 2.76 2.02c.505.282.862.134.998-.465l1.811-8.486c.161-.749-.27-1.041-.763-.858L.557 5.63c-.726.282-.715.687-.123.87l2.721.847L9.477 3.39c.297-.197.568-.088.345.11L4.71 8.09Z"/>
	</g>
	
</symbol><symbol id="timer-1">
	<g fill="currentColor" clip-path="url(#a)">
		<path d="M14.453 5.358 15.53 4.28l-1.06-1.06-1.153 1.152A7.452 7.452 0 0 0 9.75 3.038V1.5h1.5V0h-4.5v1.5h1.5v1.538a7.453 7.453 0 0 0-3.567 1.334L3.53 3.22 2.47 4.28l1.077 1.078a7.5 7.5 0 1 0 10.905 0ZM9 16.5a6 6 0 1 1 6-6 6.007 6.007 0 0 1-6 6Z"/>
		<path d="M9 6v4.5H4.5A4.5 4.5 0 1 0 9 6Z"/>
	</g>
	
</symbol><symbol id="viber" viewBox="0 0 13 13">
	<g fill="currentColor" clip-path="url(#a)">
		<path d="M6.407 7.28a.351.351 0 0 1-.497 0L4.312 5.682a.352.352 0 0 1 0-.497l.284-.284-.834-.834-.683.683a.59.59 0 0 0 0 .834l2.929 2.93c.11.11.258.171.417.171a.586.586 0 0 0 .417-.172l.683-.683-.834-.834-.284.284Z"/>
		<path d="M11.496 4.735c0-1.127-.442-2.19-1.244-2.991A4.205 4.205 0 0 0 7.26.5H4.75C3.625.5 2.562.942 1.76 1.744A4.205 4.205 0 0 0 .515 4.735v1.973a4.251 4.251 0 0 0 2.509 3.865v1.133c0 .586.327.794.608.794.201 0 .402-.1.597-.294l1.262-1.263h1.769c1.127 0 2.189-.441 2.991-1.244a4.205 4.205 0 0 0 1.244-2.991V4.735ZM8.272 8.08l-.932.932a1.284 1.284 0 0 1-.914.377c-.346 0-.671-.134-.915-.377L2.583 6.08a1.295 1.295 0 0 1 0-1.828l.932-.932a.351.351 0 0 1 .497 0l1.331 1.331a.351.351 0 0 1 0 .498l-.284.284 1.1 1.1.284-.284a.352.352 0 0 1 .498 0l1.331 1.331a.351.351 0 0 1 0 .498ZM5.739 3.913c0-.194.158-.352.352-.352 1.218 0 2.21.991 2.21 2.21a.352.352 0 1 1-.704 0c0-.83-.676-1.506-1.506-1.506a.352.352 0 0 1-.352-.352Zm3.716 2.21a.352.352 0 0 1-.352-.352c0-.805-.313-1.561-.882-2.13a2.993 2.993 0 0 0-2.13-.883.352.352 0 0 1 0-.703c.992 0 1.925.387 2.627 1.088a3.69 3.69 0 0 1 1.088 2.628.352.352 0 0 1-.351.351Z"/>
	</g>
	
</symbol><symbol id="vk">
	<g clip-path="url(#a)">
		<path fill="#4B729F" d="M16.596 10.857c-.323-.408-.231-.59 0-.955.004-.004 2.673-3.693 2.948-4.943l.002-.001c.137-.456 0-.791-.661-.791h-2.187c-.556 0-.813.287-.95.61 0 0-1.114 2.664-2.689 4.392-.508.499-.743.659-1.02.659-.137 0-.35-.16-.35-.616V4.958c0-.547-.156-.791-.617-.791H7.634c-.349 0-.557.255-.557.492 0 .519.788.638.87 2.096V9.92c0 .694-.126.821-.405.821-.744 0-2.548-2.676-3.617-5.738-.216-.594-.427-.834-.987-.834H.75c-.624 0-.75.287-.75.609 0 .568.743 3.394 3.457 7.128 1.808 2.548 4.355 3.929 6.671 3.929 1.393 0 1.563-.307 1.563-.835 0-2.434-.126-2.665.571-2.665.324 0 .88.16 2.18 1.39 1.486 1.457 1.73 2.11 2.562 2.11h2.187c.623 0 .939-.307.757-.912-.416-1.273-3.226-3.89-3.352-4.065Z"/>
	</g>
	
</symbol><symbol id="whatsapp" viewBox="0 0 13 13">
	<g clip-path="url(#a)">
		<path fill="currentColor" d="M6.497.504A5.996 5.996 0 0 0 1.45 9.736l-.933 2.421a.25.25 0 0 0 .317.325l2.499-.892A5.996 5.996 0 1 0 6.497.504Z"/>
		<path fill="#F7F7F7" d="M9.357 7.525s-.612-.3-.995-.5c-.434-.224-.944.195-1.184.433a3.007 3.007 0 0 1-1.003-.637 3.004 3.004 0 0 1-.636-1.003c.238-.24.655-.75.433-1.183-.198-.384-.5-.996-.5-.996a.25.25 0 0 0-.223-.138h-.5a1.506 1.506 0 0 0-1.249 1.5c0 .784.939 2.291 1.572 2.925.633.633 2.14 1.572 2.925 1.572a1.506 1.506 0 0 0 1.5-1.25V7.75a.25.25 0 0 0-.14-.224Z"/>
	</g>
	
</symbol><symbol id="youtube">
	<g clip-path="url(#a)">
		<path fill="#E53935" d="M.436 14.895c.408 1.448 1.658 1.713 1.741 1.764 2.056.56 13.58.562 15.666 0 1.429-.413 1.692-1.68 1.74-1.764.545-2.895.58-6.67-.024-9.954l.025.163c-.409-1.448-1.658-1.713-1.741-1.764-2.028-.55-13.582-.572-15.666 0C.747 3.754.485 5.02.437 5.104c-.583 3.043-.613 6.533 0 9.79Zm7.572-1.853V6.965l5.222 3.043-5.222 3.034Z"/>
	</g>
	
</symbol></svg>