<svg xmlns="http://www.w3.org/2000/svg" width="20" height="20" fill="none">
	<mask id="a" fill="#fff">
		<path
			d="M19.414 11.264h-.637l-2.042-4.939a.586.586 0 0 0-.08-1.165h-5.037A1.737 1.737 0 0 0 9.986 4.01c-.751 0-1.392.48-1.633 1.149H3.345a.586.586 0 0 0-.08 1.165l-2.042 4.939H.586A.586.586 0 0 0 0 11.85a4.144 4.144 0 0 0 4.139 4.139 4.144 4.144 0 0 0 4.139-4.14.586.586 0 0 0-.586-.585h-.638L5.015 6.33h3.338c.241.67.882 1.149 1.633 1.149.75 0 1.39-.48 1.632-1.149h3.367l-2.04 4.933h-.637a.586.586 0 0 0-.586.586 4.144 4.144 0 0 0 4.14 4.139A4.143 4.143 0 0 0 20 11.849a.586.586 0 0 0-.586-.585ZM4.14 14.817a2.972 2.972 0 0 1-2.909-2.381h5.818a2.972 2.972 0 0 1-2.91 2.38Zm1.647-3.553H2.492l1.647-3.985 1.647 3.985Zm4.2-4.956a.563.563 0 1 1 0-1.126.563.563 0 0 1 0 1.126Zm5.875.971 1.648 3.985h-3.295l1.647-3.985Zm0 7.538a2.972 2.972 0 0 1-2.909-2.381h5.818a2.972 2.972 0 0 1-2.909 2.38Z"/>
	</mask>
	<path fill="currentColor"
		  d="M19.414 11.264h-.637l-2.042-4.939a.586.586 0 0 0-.08-1.165h-5.037A1.737 1.737 0 0 0 9.986 4.01c-.751 0-1.392.48-1.633 1.149H3.345a.586.586 0 0 0-.08 1.165l-2.042 4.939H.586A.586.586 0 0 0 0 11.85a4.144 4.144 0 0 0 4.139 4.139 4.144 4.144 0 0 0 4.139-4.14.586.586 0 0 0-.586-.585h-.638L5.015 6.33h3.338c.241.67.882 1.149 1.633 1.149.75 0 1.39-.48 1.632-1.149h3.367l-2.04 4.933h-.637a.586.586 0 0 0-.586.586 4.144 4.144 0 0 0 4.14 4.139A4.143 4.143 0 0 0 20 11.849a.586.586 0 0 0-.586-.585ZM4.14 14.817a2.972 2.972 0 0 1-2.909-2.381h5.818a2.972 2.972 0 0 1-2.91 2.38Zm1.647-3.553H2.492l1.647-3.985 1.647 3.985Zm4.2-4.956a.563.563 0 1 1 0-1.126.563.563 0 0 1 0 1.126Zm5.875.971 1.648 3.985h-3.295l1.647-3.985Zm0 7.538a2.972 2.972 0 0 1-2.909-2.381h5.818a2.972 2.972 0 0 1-2.909 2.38Z"/>
	<path fill="none"
		  d="m18.777 11.264-3.697 1.528 1.022 2.472h2.675v-4Zm-2.042-4.939-.54-3.963-5.138.7 1.981 4.792 3.697-1.529ZM11.618 5.16 7.854 6.515l.953 2.645h2.81v-4Zm-3.265 0v4h2.811l.953-2.645L8.353 5.16ZM3.265 6.325l3.697 1.529L8.943 3.06l-5.138-.699-.54 3.963Zm-2.042 4.939v4h2.675l1.022-2.472-3.697-1.528Zm5.831 0-3.696 1.528 1.022 2.472h2.674v-4ZM5.015 6.33v-4H-.967L1.318 7.86 5.015 6.33Zm3.338 0 3.764-1.355-.953-2.645h-2.81v4Zm3.265 0v-4H8.807l-.953 2.645 3.764 1.355Zm3.367 0 3.697 1.529 2.285-5.529h-5.982v4Zm-2.04 4.933v4h2.675l1.022-2.472-3.696-1.528ZM1.23 12.436v-4h-4.884l.962 4.788 3.922-.788Zm5.818 0 3.921.788.963-4.788H7.048v4Zm-1.262-1.172v4h5.982L9.483 9.736l-3.697 1.528Zm-3.294 0-3.697-1.528-2.286 5.528h5.983v-4Zm1.647-3.985 3.696-1.528L4.14-3.19.442 5.75 4.14 7.279Zm11.722 0 3.697-1.528L15.86-3.19 12.165 5.75l3.696 1.528Zm1.648 3.985v4h5.982l-2.286-5.528-3.696 1.528Zm-3.295 0-3.697-1.528-2.285 5.528h5.982v-4Zm-1.262 1.172v-4H8.068l.963 4.788 3.921-.788Zm5.818 0 3.922.788.962-4.788H18.77v4Zm.644-5.172h-.637v8h.637v-8Zm3.06 2.472L20.43 4.797l-7.393 3.057 2.042 4.938 7.393-3.056Zm-5.2.553a4.586 4.586 0 0 0 3.967-4.544h-8a3.414 3.414 0 0 1 2.955-3.383l1.078 7.927Zm3.967-4.544a4.586 4.586 0 0 0-4.586-4.585v8a3.414 3.414 0 0 1-3.414-3.415h8ZM16.655 1.16h-5.037v8h5.037v-8Zm-1.274 2.644A5.737 5.737 0 0 0 9.986.011v8c-.994 0-1.821-.633-2.132-1.496l7.527-2.71ZM9.986.011A5.737 5.737 0 0 0 4.59 3.804l7.527 2.71a2.263 2.263 0 0 1-2.131 1.497v-8ZM8.353 1.16H3.345v8h5.008v-8Zm-5.008 0a4.586 4.586 0 0 0-4.586 4.585h8A3.414 3.414 0 0 1 3.345 9.16v-8Zm-4.586 4.585a4.586 4.586 0 0 0 3.967 4.544l1.079-7.927a3.414 3.414 0 0 1 2.954 3.383h-8Zm.81-.948-2.042 4.939 7.393 3.056 2.042-4.938-7.393-3.057Zm1.654 2.467H.586v8h.637v-8Zm-.637 0A4.586 4.586 0 0 0-4 11.85h8a3.414 3.414 0 0 1-3.414 3.414v-8ZM-4 11.85a8.144 8.144 0 0 0 8.139 8.139v-8a.119.119 0 0 1-.05-.01.155.155 0 0 1-.047-.032.154.154 0 0 1-.033-.048.117.117 0 0 1-.009-.05h-8Zm8.139 8.139a8.144 8.144 0 0 0 8.139-8.14h-8a.117.117 0 0 1-.01.05.153.153 0 0 1-.032.048.155.155 0 0 1-.048.033.119.119 0 0 1-.05.009v8Zm8.139-8.14a4.586 4.586 0 0 0-4.586-4.585v8a3.414 3.414 0 0 1-3.414-3.414h8ZM7.692 7.265h-.638v8h.638v-8Zm3.059 2.472L8.71 4.803 1.319 7.86l2.04 4.932 7.393-3.056Zm-5.736.595h3.338v-8H5.015v8ZM4.59 7.687a5.737 5.737 0 0 0 5.396 3.793v-8c.993 0 1.82.633 2.13 1.496L4.59 7.686Zm5.396 3.793a5.737 5.737 0 0 0 5.395-3.793l-7.527-2.71A2.263 2.263 0 0 1 9.986 3.48v8Zm1.632-1.149h3.367v-8h-3.367v8Zm-.33-5.528L9.25 9.736l7.393 3.056 2.04-4.932-7.394-3.057Zm1.658 2.46h-.638v8h.638v-8Zm-.638 0a4.586 4.586 0 0 0-4.586 4.587h8a3.414 3.414 0 0 1-3.414 3.414v-8ZM7.722 11.85a8.144 8.144 0 0 0 8.14 8.139v-8a.119.119 0 0 1-.05-.01.155.155 0 0 1-.048-.032.153.153 0 0 1-.033-.048.117.117 0 0 1-.009-.05h-8Zm8.14 8.139A8.144 8.144 0 0 0 24 11.849h-8a.118.118 0 0 1-.009.05.157.157 0 0 1-.033.048.156.156 0 0 1-.048.033.119.119 0 0 1-.049.009v8ZM24 11.849a4.586 4.586 0 0 0-4.586-4.585v8A3.414 3.414 0 0 1 16 11.85h8ZM4.139 10.818c.51 0 .918.358 1.012.83l-7.843 1.577c.64 3.185 3.45 5.593 6.83 5.593v-8ZM1.23 16.436h5.818v-8H1.23v8Zm1.896-4.789c.095-.472.503-.83 1.013-.83v8c3.38 0 6.19-2.408 6.83-5.593l-7.843-1.577Zm2.66-4.383H2.492v8h3.294v-8Zm.402 5.528 1.647-3.984L.442 5.75l-1.647 3.985 7.393 3.056ZM.442 8.808l1.648 3.984 7.393-3.056L7.835 5.75.442 8.808Zm9.544-6.5c1.899 0 3.437 1.538 3.437 3.437h-8a4.563 4.563 0 0 0 4.563 4.563v-8Zm3.437 3.437a3.437 3.437 0 0 1-3.437 3.438v-8a4.563 4.563 0 0 0-4.563 4.562h8ZM9.986 9.183a3.437 3.437 0 0 1-3.438-3.438h8a4.563 4.563 0 0 0-4.562-4.562v8ZM6.548 5.745a3.437 3.437 0 0 1 3.438-3.437v8a4.563 4.563 0 0 0 4.562-4.563h-8Zm5.617 3.063 1.647 3.984 7.393-3.056-1.647-3.985-7.393 3.057Zm5.344-1.544h-3.295v8h3.295v-8Zm.401 5.528 1.648-3.984-7.393-3.057-1.648 3.985 7.393 3.056Zm-2.049-1.975c.51 0 .918.358 1.013.83L9.03 13.224c.64 3.185 3.45 5.593 6.83 5.593v-8Zm-2.909 5.619h5.818v-8h-5.818v8Zm1.896-4.789c.095-.472.503-.83 1.013-.83v8c3.38 0 6.19-2.408 6.83-5.593l-7.842-1.577Z"
		  mask="url(#a)"/>
</svg>
