<svg xmlns="http://www.w3.org/2000/svg" viewBox="0 0 13 13" fill="none">
	<g fill="currentColor" clip-path="url(#a)">
		<path
			d="M6.407 7.28a.351.351 0 0 1-.497 0L4.312 5.682a.352.352 0 0 1 0-.497l.284-.284-.834-.834-.683.683a.59.59 0 0 0 0 .834l2.929 2.93c.11.11.258.171.417.171a.586.586 0 0 0 .417-.172l.683-.683-.834-.834-.284.284Z"/>
		<path
			d="M11.496 4.735c0-1.127-.442-2.19-1.244-2.991A4.205 4.205 0 0 0 7.26.5H4.75C3.625.5 2.562.942 1.76 1.744A4.205 4.205 0 0 0 .515 4.735v1.973a4.251 4.251 0 0 0 2.509 3.865v1.133c0 .586.327.794.608.794.201 0 .402-.1.597-.294l1.262-1.263h1.769c1.127 0 2.189-.441 2.991-1.244a4.205 4.205 0 0 0 1.244-2.991V4.735ZM8.272 8.08l-.932.932a1.284 1.284 0 0 1-.914.377c-.346 0-.671-.134-.915-.377L2.583 6.08a1.295 1.295 0 0 1 0-1.828l.932-.932a.351.351 0 0 1 .497 0l1.331 1.331a.351.351 0 0 1 0 .498l-.284.284 1.1 1.1.284-.284a.352.352 0 0 1 .498 0l1.331 1.331a.351.351 0 0 1 0 .498ZM5.739 3.913c0-.194.158-.352.352-.352 1.218 0 2.21.991 2.21 2.21a.352.352 0 1 1-.704 0c0-.83-.676-1.506-1.506-1.506a.352.352 0 0 1-.352-.352Zm3.716 2.21a.352.352 0 0 1-.352-.352c0-.805-.313-1.561-.882-2.13a2.993 2.993 0 0 0-2.13-.883.352.352 0 0 1 0-.703c.992 0 1.925.387 2.627 1.088a3.69 3.69 0 0 1 1.088 2.628.352.352 0 0 1-.351.351Z"/>
	</g>
	<defs>
		<clipPath id="a">
			<path fill="#fff" d="M0 .5h12v12H0z"/>
		</clipPath>
	</defs>
</svg>
