<svg xmlns="http://www.w3.org/2000/svg" viewBox="0 0 13 13" fill="none">
	<g clip-path="url(#a)">
		<path fill="currentColor"
			  d="M6.497.504A5.996 5.996 0 0 0 1.45 9.736l-.933 2.421a.25.25 0 0 0 .317.325l2.499-.892A5.996 5.996 0 1 0 6.497.504Z"/>
		<path fill="#F7F7F7"
			  d="M9.357 7.525s-.612-.3-.995-.5c-.434-.224-.944.195-1.184.433a3.007 3.007 0 0 1-1.003-.637 3.004 3.004 0 0 1-.636-1.003c.238-.24.655-.75.433-1.183-.198-.384-.5-.996-.5-.996a.25.25 0 0 0-.223-.138h-.5a1.506 1.506 0 0 0-1.249 1.5c0 .784.939 2.291 1.572 2.925.633.633 2.14 1.572 2.925 1.572a1.506 1.506 0 0 0 1.5-1.25V7.75a.25.25 0 0 0-.14-.224Z"/>
	</g>
	<defs>
		<clipPath id="a">
			<path fill="#fff" d="M.5.5h12v12H.5z"/>
		</clipPath>
	</defs>
</svg>
